<svg width="24" height="24" viewBox="0 0 24 24" fill="none" xmlns="http://www.w3.org/2000/svg">
<path fill-rule="evenodd" clip-rule="evenodd" d="M17.0435 15.5272L23.7185 22.263C24.106 22.6753 24.0935 23.3252 23.681 23.7188C23.4872 23.9063 23.231 24 22.9747 24C22.706 24 22.431 23.8938 22.231 23.6813L15.5998 16.9893C13.9498 18.3265 11.8561 19.1263 9.56863 19.1263C4.2812 19.1263 0 14.8461 0 9.56626C0 4.28638 4.2812 0 9.56863 0C14.8561 0 19.1373 4.28014 19.1373 9.56001C19.1373 11.8157 18.3498 13.8901 17.0435 15.5272ZM4.2562 14.8711C5.67493 16.2895 7.56241 17.0706 9.56863 17.0706C11.5749 17.0706 13.4623 16.2895 14.8811 14.8711C16.2998 13.459 17.081 11.572 17.081 9.56626C17.081 7.56678 16.2998 5.67977 14.8811 4.26139C13.4623 2.84301 11.5749 2.06196 9.56863 2.06196C7.56241 2.06196 5.67493 2.84301 4.2562 4.26139C2.83747 5.67352 2.05622 7.56053 2.05622 9.56626C2.05622 11.5657 2.83747 13.4527 4.2562 14.8711Z" fill="#9AA4AF"/>
</svg>
