<svg width="47" height="38" viewBox="0 0 47 38" fill="none" xmlns="http://www.w3.org/2000/svg">
<path fill-rule="evenodd" clip-rule="evenodd" d="M16.9096 3.37789C24.5269 -1.84999 34.8189 -0.926807 41.3822 5.57302C45.005 9.16083 47 13.9309 47 19.0047C47 24.0785 45.005 28.8486 41.3825 32.4364C38.1046 35.6827 33.7552 37.6427 29.1356 37.9555C28.697 37.9852 28.2586 38 27.8215 38H27.8203H27.8198H27.8184C23.6978 37.9994 19.6765 36.689 16.371 34.2479C15.9627 33.9464 15.8785 33.3742 16.183 32.9699C16.4875 32.5656 17.0651 32.4824 17.4734 32.7837C19.3546 34.173 21.4533 35.126 23.6332 35.6546C23.2442 35.1744 22.8721 34.6235 22.5202 34.0021C21.1808 31.6374 20.2062 28.4214 19.7019 24.7016C19.6342 24.2018 19.9883 23.7421 20.4931 23.675C20.9981 23.6078 21.462 23.9585 21.5298 24.4585C22.4118 30.9644 24.8783 35.7598 27.4803 36.1474C27.7091 36.1514 27.9379 36.1506 28.1666 36.1458C29.6557 35.9171 31.1526 34.2317 32.321 31.4409C32.6436 30.6706 32.9319 29.8395 33.1851 28.959H29.08C28.5708 28.959 28.1579 28.5501 28.1579 28.0458C28.1579 27.5415 28.5708 27.1326 29.08 27.1326H33.6441C34.1253 24.9204 34.4046 22.4716 34.4584 19.918H31.876C31.3668 19.918 30.9539 19.5091 30.9539 19.0048C30.9539 18.5004 31.3668 18.0916 31.876 18.0916H34.4584C34.4046 15.538 34.1253 13.0892 33.6441 10.8771H21.9995C21.8448 11.586 21.7101 12.3201 21.5977 13.0736C21.5233 13.5726 21.0541 13.9167 20.5508 13.8437C20.047 13.77 19.6988 13.3058 19.7732 12.8069C20.3091 9.21087 21.2906 6.11301 22.6115 3.84838C22.9428 3.28063 23.2912 2.77397 23.6546 2.32886C21.6622 2.81725 19.7311 3.66373 17.9602 4.87915C17.5417 5.16627 16.9672 5.06325 16.6771 4.64874C16.3869 4.23413 16.4911 3.66519 16.9096 3.37789ZM36.3029 18.0915H45.1311C44.9968 15.5361 44.2996 13.0843 43.0986 10.877H35.5266C35.9855 13.1139 36.2514 15.5578 36.3029 18.0915ZM22.4587 9.05051C22.9354 7.39016 23.5291 5.92653 24.2085 4.76198C25.309 2.87515 26.5915 1.83599 27.8196 1.83599C29.4209 1.83599 31.0616 3.56099 32.3209 6.56862C32.6434 7.33893 32.9317 8.17006 33.1849 9.05051H22.4587ZM31.9853 2.33224C32.7392 3.25487 33.4264 4.44034 34.0246 5.86909C34.4343 6.84752 34.7926 7.91436 35.0968 9.05051H41.9485C41.3921 8.27956 40.7682 7.54806 40.0781 6.8646C37.7754 4.58408 34.9649 3.06355 31.9853 2.33224ZM40.078 31.1447C37.7964 33.4044 34.9913 34.9111 32.0154 35.6402C32.7576 34.723 33.4343 33.5499 34.0246 32.1403C34.4343 31.1617 34.7926 30.095 35.0968 28.9588H41.9485C41.3922 29.7299 40.7683 30.4614 40.078 31.1447ZM36.303 19.9179C36.2515 22.4516 35.9856 24.8955 35.5266 27.1325H43.0987C44.2998 24.9251 44.9969 22.4734 45.1312 19.9179H36.303Z" fill="white"/>
<path d="M25.707 27.293C25.521 27.107 25.263 27 25 27C24.7361 27 24.4791 27.1069 24.293 27.293C24.106 27.479 24 27.737 24 28C24 28.263 24.106 28.521 24.293 28.7069C24.479 28.8929 24.737 29 25 29C25.263 29 25.521 28.893 25.707 28.7069C25.8929 28.521 26 28.263 26 28C26 27.737 25.8929 27.479 25.707 27.293Z" fill="white"/>
<path fill-rule="evenodd" clip-rule="evenodd" d="M22.6882 15.4983C25.0717 15.4983 27.3601 16.6007 28.8095 18.4472C29.0635 18.7705 29.0635 19.2199 28.8096 19.5433C27.3602 21.3898 25.0718 22.4921 22.6883 22.4921V22.4922H19.3357L15.9514 30.4444C15.8083 30.7807 15.4717 31 15.0985 31H11.611C11.101 31 10.6874 30.5964 10.6874 30.0987V22.4922H7.31707L4.95746 25.2508C4.78198 25.456 4.52227 25.5745 4.24844 25.5745H0.923607C0.594542 25.5745 0.290412 25.4037 0.125094 25.1261C-0.0402237 24.8486 -0.0417937 24.5062 0.121031 24.2272L3.17415 18.9952L0.121031 13.7632C-0.0417937 13.4843 -0.0402237 13.1419 0.125094 12.8643C0.290504 12.5868 0.594634 12.416 0.923607 12.416H4.24834C4.52218 12.416 4.78198 12.5346 4.95746 12.7398L7.31688 15.4983H10.6872V7.90126C10.6872 7.40349 11.1008 7 11.6108 7H15.0983C15.4714 7 15.8078 7.2191 15.951 7.55527L19.3352 15.4983H22.6882ZM14.4822 8.80252H12.5345V15.4983H17.335L14.4822 8.80252ZM14.4819 29.1974H12.5345V22.4866H17.3378L14.4819 29.1974ZM7.02818 20.6896H22.6884C24.2508 20.6896 25.7595 20.0666 26.8522 18.9952C25.7595 17.9238 24.2508 17.3009 22.6883 17.3009H7.02882C6.97055 17.3092 6.91107 17.3122 6.85169 17.3097C6.59253 17.2983 6.35028 17.1812 6.18413 16.9869L3.8163 14.2185H2.51232L5.03947 18.5493C5.20082 18.8257 5.20082 19.1648 5.03947 19.4412L2.51232 23.7719H3.8163L6.18413 21.0036C6.34982 20.8099 6.59124 20.6928 6.84956 20.6808C6.90932 20.6783 6.96944 20.6811 7.02818 20.6896Z" fill="white"/>
<path d="M1.7069 7.293C1.521 7.107 1.263 7 1 7C0.737 7 0.479 7.107 0.293 7.293C0.107 7.479 0 7.737 0 8C0 8.263 0.1069 8.521 0.293 8.707C0.479 8.894 0.737 9 1 9C1.263 9 1.521 8.894 1.7069 8.707C1.8929 8.521 2 8.264 2 8C1.9999 7.737 1.8929 7.479 1.7069 7.293Z" fill="white"/>
<path d="M8.04 7H3.96C3.42989 7 3 7.4477 3 8C3 8.5523 3.42979 9 3.96 9H8.04C8.57011 9 9 8.5523 9 8C9 7.4477 8.57021 7 8.04 7Z" fill="white"/>
<path d="M8.02102 29H1.97898C1.43839 29 1 29.4478 1 30C1 30.5522 1.43839 31 1.97898 31H8.02102C8.56161 31 9 30.5522 9 30C9 29.4478 8.56161 29 8.02102 29Z" fill="white"/>
</svg>
